<?xml version="1.0"?><svg xmlns="http://www.w3.org/2000/svg"  viewBox="0 0 30 30" width="30px" height="30px">    <path d="M 16.5 3.0039062 C 15.675 3.0039062 15 3.6789062 15 4.5039062 C 15 5.1842703 15.462255 5.7556237 16.085938 5.9375 C 16.544443 6.8733375 17.197192 7.5010491 17.832031 7.9433594 C 17.32041 8.4812919 17.001044 9.203809 17 10 C 17 10 17 10.001953 17 10.001953 C 17 10.001953 17 10.003906 17 10.003906 C 17 10.005889 16.999996 10.007784 17 10.009766 C 17.00007 10.050459 17.006931 10.085118 17.007812 10.125 L 17 10.121094 C 17 10.853413 17.146445 11.439595 17.316406 12.001953 C 16.190652 9.6399019 13.786375 8 11 8 C 8.9266667 8 7.0646154 8.8693533 5.7753906 10.320312 L 5.7714844 10.324219 L 5.7675781 10.328125 C 4.6932024 11.563155 4 13.21436 4 15 C 4 17.203445 5.0268575 19.16908 6.6230469 20.453125 C 3.6625873 21.691917 3 23.39727 3 23.697266 C 3 23.717195 3.01023 23.734361 3.0117188 23.753906 C 3.0102676 23.774179 3 23.79904 3 23.818359 C 3 23.989629 3.0668599 24.092879 3.171875 24.164062 C 3.5649039 24.692869 4.6428603 25.003906 6.1347656 25.003906 L 18 25.003906 C 20.556 25.003906 25 24.240813 25 19.382812 C 25 15.893813 23 13.658 23 10 C 22.998966 9.2107789 22.683415 8.4954645 22.179688 7.9589844 C 22.727861 7.5213789 23.292666 6.8951241 23.789062 5.9746094 C 24.476616 5.8386114 25 5.229825 25 4.5039062 C 25 3.6789063 24.325 3.0039062 23.5 3.0039062 C 22.675 3.0039062 22 3.6789062 22 4.5039062 C 22 4.7724066 22.07823 5.0216084 22.203125 5.2402344 C 21.717452 6.11815 21.202318 6.5679248 20.798828 6.8164062 C 20.613781 6.9303638 20.473396 6.9935201 20.353516 7.0390625 C 20.236341 7.0250019 20.120803 7.0039062 20 7.0039062 C 19.89519 7.0039062 19.795479 7.024531 19.693359 7.0351562 C 19.175597 6.877854 18.309691 6.4470106 17.740234 5.34375 C 17.740234 5.34375 17.742188 5.3417969 17.742188 5.3417969 C 17.904346 5.1022949 18 4.8132812 18 4.5039062 C 18 3.6789063 17.325 3.0039062 16.5 3.0039062 z M 11 10 C 13.785935 10 16 12.214065 16 15 C 16 15.172417 16.003759 15.100179 16.005859 15.126953 C 16.007859 15.153723 16.011272 15.188203 16.013672 15.228516 C 16.018572 15.309136 16.023438 15.418524 16.023438 15.542969 C 16.023438 15.791858 15.997226 16.102569 15.941406 16.3125 L 15.935547 16.333984 L 15.929688 16.357422 C 15.752173 17.179992 15.340049 17.397143 14.835938 17.5625 C 14.331824 17.727857 13.857422 17.695312 13.857422 17.695312 L 13.853516 17.695312 C 14.029453 16.515974 14 15.443938 14 15 C 14 14.086038 13.570981 13.302507 13.003906 12.794922 C 12.436831 12.287337 11.741633 12 11.007812 12 C 9.8530846 12 8.9464537 12.577949 8.5078125 13.248047 C 8.0691713 13.918145 8 14.569415 8 14.994141 C 8 16.204839 8.703125 17.042969 8.703125 17.042969 A 1.0001 1.0001 0 1 0 10.285156 15.820312 C 10.285156 15.820312 10 15.379442 10 14.994141 C 10 14.879866 10.05553 14.536402 10.181641 14.34375 C 10.307749 14.151098 10.405541 14 11.007812 14 C 11.159992 14 11.462497 14.09949 11.669922 14.285156 C 11.877347 14.470821 12 14.686962 12 15 C 12 15.656695 12.02054 17.053291 11.716797 18.205078 C 11.564925 18.780972 11.334429 19.267278 11.066406 19.558594 C 10.874759 19.766897 10.682649 19.900288 10.394531 19.960938 C 7.9004087 19.666769 6 17.58051 6 15 C 6 14.685762 6.0306496 14.374196 6.0898438 14.070312 C 6.2674262 13.158661 6.6954122 12.313187 7.2714844 11.648438 L 7.2734375 11.646484 C 8.2000626 10.604773 9.4743557 10 11 10 z M 21.306641 12.689453 C 21.528441 13.699426 21.835315 14.611527 22.126953 15.457031 C 22.594953 16.818031 23 17.993813 23 19.382812 C 23 20.1637 22.997368 22.332234 19.6875 22.876953 C 20.633537 21.975216 21 20.710018 21 19.503906 C 21 16.32792 20.179928 15.820415 20.03125 13 C 20.489728 12.995133 20.918455 12.880038 21.306641 12.689453 z"/></svg>