<svg width="1112" height="201" viewBox="0 0 1112 201" fill="none" xmlns="http://www.w3.org/2000/svg">
<path d="M152.493 172.999H8V26.4995H152.493L80.2466 99.7495L152.493 172.999Z" fill="black"/>
<path d="M1049.38 175.469C1038.6 175.469 1028.94 173.719 1020.4 170.219C1011.86 166.719 1005 161.539 999.818 154.679C994.778 147.819 992.118 139.559 991.838 129.899H1030.06C1030.62 135.359 1032.51 139.559 1035.73 142.499C1038.95 145.299 1043.15 146.699 1048.33 146.699C1053.65 146.699 1057.85 145.509 1060.93 143.129C1064.01 140.609 1065.55 137.179 1065.55 132.839C1065.55 129.199 1064.29 126.189 1061.77 123.809C1059.39 121.429 1056.38 119.469 1052.74 117.929C1049.24 116.389 1044.2 114.639 1037.62 112.679C1028.1 109.739 1020.33 106.799 1014.31 103.859C1008.29 100.919 1003.11 96.5795 998.768 90.8395C994.428 85.0995 992.258 77.6095 992.258 68.3695C992.258 54.6495 997.228 43.9395 1007.17 36.2395C1017.11 28.3995 1030.06 24.4795 1046.02 24.4795C1062.26 24.4795 1075.35 28.3995 1085.29 36.2395C1095.23 43.9395 1100.55 54.7195 1101.25 68.5795H1062.4C1062.12 63.8195 1060.37 60.1095 1057.15 57.4495C1053.93 54.6495 1049.8 53.2495 1044.76 53.2495C1040.42 53.2495 1036.92 54.4395 1034.26 56.8195C1031.6 59.0595 1030.27 62.3495 1030.27 66.6895C1030.27 71.4495 1032.51 75.1595 1036.99 77.8195C1041.47 80.4795 1048.47 83.3495 1057.99 86.4295C1067.51 89.6495 1075.21 92.7295 1081.09 95.6695C1087.11 98.6095 1092.29 102.879 1096.63 108.479C1100.97 114.079 1103.14 121.289 1103.14 130.109C1103.14 138.509 1100.97 146.139 1096.63 152.999C1092.43 159.859 1086.27 165.319 1078.15 169.379C1070.03 173.439 1060.44 175.469 1049.38 175.469Z" fill="black"/>
<path d="M936.36 98.3994C944.9 100.219 951.76 104.489 956.94 111.209C962.12 117.789 964.71 125.349 964.71 133.889C964.71 146.209 960.37 156.009 951.69 163.289C943.15 170.429 931.18 173.999 915.78 173.999H847.11V26.5794H913.47C928.45 26.5794 940.14 30.0094 948.54 36.8694C957.08 43.7294 961.35 53.0394 961.35 64.7994C961.35 73.4794 959.04 80.6894 954.42 86.4294C949.94 92.1694 943.92 96.1594 936.36 98.3994ZM883.02 86.2194H906.54C912.42 86.2194 916.9 84.9594 919.98 82.4394C923.2 79.7794 924.81 75.9294 924.81 70.8894C924.81 65.8494 923.2 61.9994 919.98 59.3395C916.9 56.6795 912.42 55.3495 906.54 55.3495H883.02V86.2194ZM909.48 145.019C915.5 145.019 920.12 143.689 923.34 141.029C926.7 138.229 928.38 134.239 928.38 129.059C928.38 123.879 926.63 119.819 923.13 116.879C919.77 113.939 915.08 112.469 909.06 112.469H883.02V145.019H909.48Z" fill="black"/>
<path d="M627.108 146.279H674.148V173.999H591.198V26.5794H627.108V146.279Z" fill="black"/>
<path d="M502.994 55.3495V85.1694H551.084V112.889H502.994V142.42C502.994 143.795 504.353 144.782 505.675 144.405C509.537 143.307 517.027 141.499 524.5 141.499C529.808 141.499 541 145.229 545 145.229C549.802 145.229 553.816 145.229 557.384 143.229V172.999C554.5 174.499 551 175.999 545 175.999C539 175.999 533 171.999 524.5 171.999C516 171.999 509.017 175.999 498 175.999C486.5 175.999 482.134 171.999 475.5 171.999C468.77 171.999 467.084 172.999 467.084 172.999V26.5794H557.384V55.3495H502.994Z" fill="black"/>
<path d="M438.562 26.5794V55.3495H399.502V173.999H363.592V55.3495H324.532V26.5794H438.562Z" fill="black"/>
<path d="M199.226 29.5794C201.435 29.5794 203.226 31.3703 203.226 33.5794V104.779C203.226 128.454 216.148 142.289 234.846 142.289C253.476 142.289 266.886 128.531 266.886 104.779V33.5795C266.886 31.3703 268.677 29.5794 270.886 29.5794H300.796V104.569C300.796 147.917 272.103 175.469 234.216 175.469C196.012 175.469 169.316 147.688 169.316 104.569V29.5794H199.226Z" fill="black"/>
<path d="M219.75 26.9994C214.089 26.9994 209.5 31.5885 209.5 37.2494V62.9994C209.5 64.6563 210.843 65.9994 212.5 65.9994H227C228.657 65.9994 230 64.6563 230 62.9994V37.2494C230 31.5885 225.411 26.9994 219.75 26.9994Z" fill="black"/>
<path d="M250.25 26.9994C244.589 26.9994 240 31.5885 240 37.2494V62.9994C240 64.6563 241.343 65.9994 243 65.9994H257.5C259.157 65.9994 260.5 64.6563 260.5 62.9994V37.2494C260.5 31.5885 255.911 26.9994 250.25 26.9994Z" fill="black"/>
<path d="M739.528 90.4739C740.51 88.3377 746.121 88.9458 751.756 92.9774C753.159 93.9817 754.64 95.3047 756.284 96.773C758.547 98.7941 761.119 101.091 764.221 103.211L766.208 104.236L801.271 108.351C800.968 112.989 800.675 117.806 800.38 122.662C798.762 149.248 797.071 177.02 793.27 183.114C779.88 204.581 690.264 164.432 695.004 139.091C696.345 131.917 716.914 112.129 736.513 93.273C737.498 92.3252 738.481 91.3797 739.459 90.4384L739.528 90.4739Z" fill="black"/>
<path d="M777.584 192.999C776.673 192.999 775.736 192.973 774.772 192.921C766.055 192.449 755.409 189.89 743.987 185.521C730.059 180.193 716.537 172.708 706.889 164.986C701.56 160.721 697.504 156.478 694.833 152.376C691.636 147.465 690.429 142.763 691.245 138.401C691.787 135.501 693.979 130.807 706.123 117.972C713.944 109.707 724.064 99.9711 733.85 90.5558C748.851 76.1242 765.853 59.767 768.482 54.0232C772.098 46.1239 784.728 19.5857 787.393 13.99C787.546 13.6066 787.73 13.232 787.941 12.8739C789.071 10.9494 790.891 9.51815 793.203 8.7348C795.028 8.11632 797.183 7.88681 799.607 8.05181C803.617 8.32538 808.377 9.69035 813.01 11.8952C817.445 14.0058 821.337 16.6855 823.967 19.4409C825.547 21.095 826.677 22.7785 827.328 24.4448C828.176 26.6152 828.219 28.8018 827.454 30.7679C827.403 30.8969 827.349 31.0268 827.287 31.1612C825.758 34.7195 813.144 64.0671 809.367 72.3447C808.663 73.8889 807.586 78.2939 806.457 90.5091C805.603 99.7488 804.919 110.989 804.195 122.89C802.1 157.304 800.539 178.665 796.521 185.106C794.592 188.199 791.516 190.418 787.38 191.701C784.596 192.564 781.31 192.999 777.584 192.999ZM798.104 15.574C796.266 15.574 794.966 15.9714 794.547 16.6848C794.526 16.7206 794.509 16.7554 794.496 16.7908C794.458 16.8944 794.415 16.9963 794.367 17.0962C791.842 22.3971 779.065 49.241 775.444 57.1518C772.434 63.7275 759.734 76.2116 739.176 95.9903C729.452 105.345 719.398 115.017 711.7 123.153C707.602 127.484 704.541 130.982 702.342 133.849C699.31 137.801 698.835 139.389 698.762 139.781C697.835 144.736 702.548 151.775 711.693 159.093C720.749 166.341 733.523 173.398 746.74 178.454C758.78 183.06 769.688 185.418 777.652 185.419C783.82 185.419 788.222 184.004 790.019 181.123C790.79 179.887 792.311 175.525 793.84 160.2C794.933 149.244 795.762 135.615 796.564 122.434C798.33 93.4171 799.604 75.3558 802.402 69.2241C806.162 60.9845 818.84 31.4855 820.273 28.1489C820.288 28.1133 820.304 28.078 820.321 28.043C820.477 27.6421 820.098 26.4093 818.415 24.6468C816.439 22.5774 813.263 20.4183 809.701 18.7235C805.975 16.9503 802.105 15.815 799.082 15.6089C798.742 15.5856 798.415 15.574 798.104 15.574Z" fill="black"/>
</svg>
